<svg width="100" height="100" viewBox="0 0 100 100" fill="none"
    xmlns="http://www.w3.org/2000/svg">
    <circle cx="50" cy="50" r="48.5" stroke="white" stroke-width="3"/>
    <path d="M65.2713 60.1803L57.7569 58.6781C56.9559 58.52 56.375 57.8119 56.375 56.9972V55.2716C56.87 54.5841 57.3306 53.6628 57.8153 52.7038C58.1831 51.9784 58.7366 50.8819 58.9841 50.6275C60.4416 49.2009 61.9953 47.4341 62.4697 45.1241C62.9028 43.0341 62.4731 41.9478 61.9713 41.0884C61.9713 39.4075 61.9713 36.3275 61.3869 34.1137C61.325 31.4325 60.8369 29.92 59.5994 28.5794C58.7262 27.6341 57.4406 27.4175 56.4094 27.2422C56.0003 27.1734 55.44 27.0806 55.2441 26.9706C53.4634 25.9806 51.6519 25.4925 49.4347 25.4375C44.8972 25.6094 39.3284 28.4866 37.4653 33.66C36.8981 35.2309 36.9531 37.8091 36.9944 39.8819L36.9462 41.0884C36.5097 41.9478 36.08 43.0341 36.5131 45.1206C36.9875 47.4375 38.5413 49.2044 39.9919 50.6241C40.2428 50.8853 40.8031 51.9853 41.1744 52.7106C41.6625 53.6663 42.13 54.5841 42.625 55.2716V56.9972C42.625 57.8119 42.0441 58.52 41.2466 58.6816L33.7288 60.1838C28.9231 61.1462 25.4375 65.3984 25.4375 70.2969V73.5625C25.4375 75.46 26.9809 77 28.875 77H70.125C72.0225 77 73.5625 75.46 73.5625 73.5625V70.2969C73.5625 65.3984 70.0734 61.1463 65.2713 60.1803Z" fill="white"/>
    <path d="M34.0312 22H27.1562C26.2075 22 25.4375 22.77 25.4375 23.7188V34.0312C25.4375 34.98 26.2075 35.75 27.1562 35.75C28.105 35.75 28.875 34.98 28.875 34.0312V25.4375H34.0312C34.98 25.4375 35.75 24.6675 35.75 23.7188C35.75 22.77 34.98 22 34.0312 22Z" fill="white"/>
    <path d="M34.0312 52.9375H28.875V44.3438C28.875 43.395 28.105 42.625 27.1562 42.625C26.2075 42.625 25.4375 43.395 25.4375 44.3438V54.6562C25.4375 55.605 26.2075 56.375 27.1562 56.375H34.0312C34.98 56.375 35.75 55.605 35.75 54.6562C35.75 53.7075 34.98 52.9375 34.0312 52.9375Z" fill="white"/>
    <path d="M71.8438 22H64.9688C64.02 22 63.25 22.77 63.25 23.7188C63.25 24.6675 64.02 25.4375 64.9688 25.4375H70.125V34.0312C70.125 34.98 70.895 35.75 71.8438 35.75C72.7925 35.75 73.5625 34.98 73.5625 34.0312V23.7188C73.5625 22.77 72.7925 22 71.8438 22Z" fill="white"/>
    <path d="M71.8438 42.625C70.895 42.625 70.125 43.395 70.125 44.3438V52.9375H64.9688C64.02 52.9375 63.25 53.7075 63.25 54.6562C63.25 55.605 64.02 56.375 64.9688 56.375H71.8438C72.7925 56.375 73.5625 55.605 73.5625 54.6562V44.3438C73.5625 43.395 72.7925 42.625 71.8438 42.625Z" fill="white"/>
</svg>
