<svg width="100" height="100" viewBox="0 0 100 100" fill="none" xmlns="http://www.w3.org/2000/svg">
<circle cx="50" cy="50" r="48.5" stroke="white" stroke-width="3"/>
<path d="M51 17.5923C33.355 17.5923 19 31.9473 19 49.5923C19 53.5199 19.704 57.3568 21.092 60.9959C21.2722 61.4684 21.7222 61.7589 22.1996 61.7589C22.34 61.7589 22.4829 61.7338 22.6218 61.6808C23.2331 61.4475 23.5399 60.7627 23.3066 60.151C22.0219 56.7827 21.3702 53.2303 21.3702 49.5923C21.3704 33.2543 34.662 19.9627 51 19.9627C67.338 19.9627 80.6296 33.2543 80.6296 49.5923C80.6296 50.2468 81.1603 50.7774 81.8148 50.7774C82.4692 50.7774 83 50.2468 83 49.5923C83 31.9473 68.645 17.5923 51 17.5923Z" fill="white"/>
<path d="M51.0166 23.5186C43.9031 23.5186 36.5338 26.9604 31.3164 32.7254C26.6954 37.8313 24.367 44.0223 24.9359 49.7107L25.0675 51.0417C25.9934 60.2618 25.9923 60.2618 24.2539 63.7014C24.1329 63.9411 24.0036 64.1962 23.8665 64.4699C23.574 65.0555 23.811 65.7674 24.3963 66.0602C24.5664 66.1453 24.747 66.1854 24.9253 66.1854C25.3599 66.1854 25.7785 65.9453 25.9863 65.5301C26.1214 65.2596 26.2488 65.0074 26.3685 64.7705C28.4191 60.7136 28.4006 60.5278 27.424 50.8049L27.2906 49.4746C26.7884 44.4514 28.893 38.9262 33.0655 34.3159C37.8406 29.0391 44.5618 25.8888 51.0166 25.8888C64.0873 25.8888 74.7371 36.5222 74.7371 49.5926V55.5184C74.7371 56.1729 75.2678 56.7036 75.9224 56.7036C76.577 56.7036 77.1076 56.1729 77.1076 55.5184V49.5927C77.1075 35.2153 65.3939 23.5186 51.0166 23.5186Z" fill="white"/>
<path d="M58.4179 30.8541C56.0571 29.9186 53.5611 29.4443 50.9998 29.4443C45.5979 29.4443 40.5394 31.5132 36.7559 35.2698C32.9485 39.0505 30.8516 44.137 30.8516 49.5925C30.8516 52.6191 31.1305 55.2586 31.3768 57.5872C32.0121 63.6011 32.3623 66.914 27.8238 69.9397C27.2793 70.3028 27.1319 71.0387 27.4951 71.5832C27.7234 71.9258 28.0993 72.111 28.4824 72.111C28.7081 72.111 28.9366 72.0467 29.1386 71.912C34.8701 68.0911 34.3686 63.3457 33.7339 57.3385C33.494 55.0676 33.222 52.4941 33.222 49.5925C33.222 39.6237 41.031 31.8147 50.9998 31.8147C53.261 31.8147 55.463 32.2328 57.5446 33.0577C58.1525 33.2985 58.8418 33.001 59.0831 32.3925C59.3241 31.7841 59.0264 31.0951 58.4179 30.8541Z" fill="white"/>
<path d="M71.1479 49.5468C71.1331 43.0783 67.9835 36.9702 62.7159 33.199C62.1838 32.8183 61.4434 32.9404 61.0623 33.473C60.6815 34.0052 60.8039 34.7457 61.3363 35.1267C65.9956 38.4623 68.7775 43.87 68.7775 49.5925C68.7775 49.6229 68.7786 49.6533 68.781 49.6834C68.7926 49.8355 69.9234 65.0113 67.6276 74.1942C67.4691 74.829 67.855 75.4725 68.4903 75.6314C68.5866 75.6554 68.6833 75.667 68.7784 75.667C69.3094 75.667 69.7926 75.3077 69.9274 74.7689C72.2761 65.374 71.2306 50.652 71.1479 49.5468Z" fill="white"/>
<path d="M64.3635 44.7145C62.323 39.1254 56.9524 35.3701 50.9998 35.3701C43.1578 35.3701 36.7775 41.75 36.7775 49.5924C36.7775 49.6415 36.7807 49.6907 36.7868 49.7394C36.7984 49.8325 37.939 59.1564 36.7894 67.2026C36.6968 67.8505 37.147 68.4509 37.7953 68.5435C37.852 68.5516 37.9084 68.5556 37.9643 68.5556C38.5444 68.5556 39.0517 68.1289 39.1362 67.5377C40.2872 59.4805 39.2669 50.5082 39.1483 49.5217C39.1862 43.0191 44.4883 37.7405 50.9998 37.7405C55.9608 37.7405 60.4364 40.8699 62.1367 45.5275C62.3612 46.1424 63.0424 46.458 63.6567 46.2344C64.2715 46.01 64.5878 45.3294 64.3635 44.7145Z" fill="white"/>
<path d="M51.0161 41.2959C46.4415 41.2959 42.7118 45.0175 42.7118 49.5921C42.7118 49.6384 42.71 49.6848 42.7155 49.7304C42.7386 49.9275 44.9609 69.5213 39.3706 77.3476C38.9901 77.8804 39.1125 78.6205 39.6453 79.001C39.8541 79.1503 40.0943 79.2218 40.3328 79.2218C40.7023 79.2218 41.0665 79.0493 41.2978 78.7255C47.2966 70.3271 45.2518 51.0878 45.0741 49.527C45.1091 46.2891 47.7706 43.6661 51.0165 43.6661C54.2841 43.6661 56.9589 46.3244 56.9589 49.592V57.8883C56.9589 58.5428 57.4895 59.0735 58.1441 59.0735C58.7988 59.0735 59.3294 58.5429 59.3294 57.8883V49.592C59.3293 45.0175 55.5908 41.2959 51.0161 41.2959Z" fill="white"/>
<path d="M75.9989 58.3923C75.3539 58.3353 74.7718 58.8174 74.715 59.4695L73.9919 67.7343C73.9347 68.3865 74.417 68.9611 75.0692 69.0181C75.1042 69.0213 75.1392 69.0228 75.1739 69.0228C75.7815 69.0228 76.2992 68.5578 76.353 67.9409L77.0762 59.6761C77.1335 59.0239 76.6512 58.4493 75.9989 58.3923Z" fill="white"/>
<path d="M37.4347 71.125C36.8905 70.7618 36.1544 70.9091 35.7912 71.4537L33.4209 75.0092C33.0577 75.5538 33.205 76.2896 33.7495 76.6527C33.9515 76.7875 34.1797 76.8517 34.4057 76.8517C34.7889 76.8517 35.1647 76.6665 35.393 76.324L37.7634 72.7685C38.1266 72.224 37.9794 71.4881 37.4347 71.125Z" fill="white"/>
<path d="M65.1962 49.3439C65.0593 48.7039 64.4288 48.2962 63.7891 48.4333C63.1491 48.5704 62.7413 49.2004 62.8784 49.8404C62.9132 50.0024 66.2812 66.1578 60.6067 77.5065C60.3142 78.0922 60.5514 78.804 61.1368 79.0968C61.3069 79.1818 61.4878 79.222 61.6661 79.222C62.1007 79.222 62.5193 78.9819 62.7271 78.5667C68.7694 66.482 65.3449 50.0382 65.1962 49.3439Z" fill="white"/>
<path d="M52.1496 48.1201C51.9905 47.4847 51.3457 47.0996 50.7124 47.2576C50.0772 47.4165 49.6912 48.06 49.8497 48.6948C49.8726 48.7866 52.0971 57.9598 48.69 68.181C48.4831 68.802 48.8187 69.473 49.4396 69.6801C49.5637 69.7215 49.6902 69.7412 49.8146 69.7412C50.3106 69.7412 50.7732 69.4272 50.9387 68.9305C54.562 58.0613 52.2497 48.5207 52.1496 48.1201Z" fill="white"/>
<path d="M49.0702 72.1955C48.4632 71.9524 47.773 72.2475 47.5297 72.8558L45.1593 78.7816C44.9163 79.3893 45.2117 80.0791 45.8195 80.3221C45.9639 80.38 46.1127 80.4073 46.2594 80.4073C46.7297 80.4073 47.1747 80.1254 47.3602 79.6619L49.7305 73.736C49.9735 73.1284 49.678 72.4386 49.0702 72.1955Z" fill="white"/>
<path d="M58.1123 62.583C58.1117 62.583 58.1115 62.583 58.1112 62.583C57.4576 62.583 56.9272 63.1363 56.926 63.7899C56.926 63.859 56.8745 70.791 53.4662 78.7436C53.2085 79.3453 53.4871 80.048 54.089 80.3059C54.2412 80.371 54.3995 80.4048 54.5551 80.4048C55.0148 80.4048 55.4523 80.1371 55.6451 79.6875C59.255 71.2645 59.2965 64.0909 59.2965 63.7905C59.2963 63.1363 58.7663 62.583 58.1123 62.583Z" fill="white"/>
</svg>
