<svg width="29" height="28" viewBox="0 0 29 28" fill="none" xmlns="http://www.w3.org/2000/svg">
<path d="M14.5 26.1037L17.0705 25.5105L15.0931 23.5332L14.5 26.1037Z" fill="#2C477C"/>
<path d="M13.9922 24.4105L14.4175 22.5675C14.4186 22.563 14.4201 22.5587 14.4213 22.5543C14.4233 22.5467 14.4253 22.5391 14.4277 22.5316C14.4302 22.5241 14.4326 22.5178 14.4351 22.511C14.4377 22.5042 14.4399 22.4982 14.4427 22.4919C14.4459 22.4844 14.4495 22.4772 14.4531 22.4701C14.4557 22.4646 14.4585 22.4594 14.4613 22.4542C14.4655 22.4465 14.47 22.4392 14.4746 22.4319C14.4776 22.4272 14.4805 22.4226 14.4836 22.4181C14.4887 22.4108 14.494 22.4037 14.4994 22.3968C14.5028 22.3925 14.5061 22.3882 14.5096 22.384C14.5151 22.3773 14.5213 22.3709 14.5273 22.3645C14.5297 22.3619 14.5319 22.359 14.5344 22.3566L20.266 16.625C18.6659 13.3339 15.7071 11.375 12.3121 11.375C9.82262 11.375 7.52268 12.4406 5.83595 14.3754C4.13725 16.3241 3.18005 19.0403 3.12695 22.0476C4.13123 22.5541 8.25495 24.5 12.3121 24.5C12.8733 24.4991 13.4341 24.4692 13.9922 24.4105Z" fill="#2C477C"/>
<path d="M15.459 22.665L22.2639 15.8602L24.7384 18.3347L17.9335 25.1395L15.459 22.665Z" fill="#2C477C"/>
<path d="M12.3125 10.5C14.7287 10.5 16.6875 8.54125 16.6875 6.125C16.6875 3.70875 14.7287 1.75 12.3125 1.75C9.89625 1.75 7.9375 3.70875 7.9375 6.125C7.9375 8.54125 9.89625 10.5 12.3125 10.5Z" fill="#2C477C"/>
<path d="M25.8741 16.4783C25.8741 16.1322 25.7714 15.7939 25.5791 15.5061C25.3868 15.2184 25.1135 14.9941 24.7937 14.8617C24.474 14.7293 24.1221 14.6946 23.7827 14.7621C23.4433 14.8297 23.1315 14.9963 22.8867 15.2411L25.3615 17.7159C25.5246 17.5538 25.6539 17.3609 25.7418 17.1485C25.8298 16.936 25.8748 16.7082 25.8741 16.4783Z" fill="#2C477C"/>
</svg>
