<svg width="29" height="28" viewBox="0 0 29 28" fill="none" xmlns="http://www.w3.org/2000/svg">
<g clip-path="url(#clip0_54_73099)">
<path d="M8.04096 13.9723H9.03895V15.9683H13.0309V13.9723H14.0289V15.9683H15.0269V13.9823C15.0254 13.3142 14.5832 12.727 13.9414 12.5411L12.8562 12.2314L11.3341 13.3734C11.1567 13.5067 10.9129 13.5067 10.7355 13.3734L9.2134 12.2314L8.12867 12.5406C7.48665 12.7268 7.04443 13.314 7.04297 13.9823V15.9683H8.04096V13.9723Z" fill="#2C477C"/>
<path d="M11.0356 18.9619C15.7205 18.9619 19.5185 15.1639 19.5185 10.479C19.5185 5.7941 15.7205 1.99609 11.0356 1.99609C6.3505 1.99609 2.55273 5.7941 2.55273 10.479C2.55785 15.1617 6.35269 18.9568 11.0356 18.9619ZM6.0457 13.9819C6.04789 12.8685 6.78517 11.89 7.85504 11.5808L9.53866 11.0998V10.4661C8.91248 9.99876 8.54286 9.26416 8.54067 8.48302V7.98402C8.26486 7.98402 8.04167 7.7606 8.04167 7.48503V6.98604C8.04167 5.33263 9.38199 3.99207 11.0356 3.99207C12.689 3.99207 14.0296 5.33263 14.0296 6.98604V7.48503C14.0296 7.7606 13.8062 7.98402 13.5306 7.98402V8.48302C13.5282 9.26416 13.1586 9.99876 12.5326 10.4661V11.0998L14.2167 11.5808C15.2861 11.8902 16.0231 12.8685 16.0256 13.9819V16.4669C16.0256 16.7425 15.8022 16.9659 15.5266 16.9659H6.54469C6.26888 16.9659 6.0457 16.7425 6.0457 16.4669V13.9819Z" fill="#2C477C"/>
<path d="M11.0345 10.9777C10.8669 10.9779 10.6998 10.9611 10.5355 10.9277V11.4767C10.5338 11.6187 10.471 11.7532 10.3633 11.846L11.0345 12.3499L11.7055 11.846C11.5979 11.7532 11.535 11.6187 11.5335 11.4767V10.9277C11.3693 10.9611 11.2019 10.9779 11.0345 10.9777Z" fill="#2C477C"/>
<path d="M11.8413 7.21484L11.5679 7.39709C10.9946 7.78011 10.3204 7.98429 9.63067 7.9838H9.53906V8.4828C9.53906 9.3095 10.2091 9.97978 11.036 9.97978C11.8627 9.97978 12.533 9.3095 12.533 8.4828V7.83859C12.2411 7.71091 11.9985 7.49212 11.8413 7.21484Z" fill="#2C477C"/>
<path d="M11.0136 6.56738L11.756 6.07228C11.8752 5.99285 12.0228 5.96824 12.1612 6.00528C12.2998 6.04207 12.4156 6.13661 12.4797 6.26501L12.7016 6.70991C12.7672 6.84173 12.8878 6.93797 13.031 6.97257C13.0271 5.87005 12.1303 4.97951 11.028 4.98341C9.92572 4.98731 9.03518 5.88418 9.03908 6.98646H9.62968C10.1223 6.9867 10.6038 6.841 11.0136 6.56738Z" fill="#2C477C"/>
<path d="M11.0355 20.9578C16.8227 20.9578 21.5144 16.2663 21.5144 10.4789C21.5144 4.69147 16.8227 0 11.0355 0C5.24811 0 0.556641 4.69147 0.556641 10.4789C0.563219 16.2634 5.25079 20.9512 11.0355 20.9578ZM11.0355 0.997989C16.2716 0.997989 20.5164 5.24261 20.5164 10.4789C20.5164 15.7152 16.2716 19.9598 11.0355 19.9598C5.79925 19.9598 1.55463 15.7152 1.55463 10.4789C1.56023 5.24505 5.80169 1.00384 11.0355 0.997989Z" fill="#2C477C"/>
<path d="M28.1186 27.562C28.7019 26.9767 28.7019 26.0299 28.1186 25.4449L22.8258 20.1523L20.709 22.2692L26.0013 27.562C26.5861 28.1467 27.5339 28.1467 28.1186 27.562Z" fill="#2C477C"/>
<path d="M19.4917 18.2285C19.2666 18.4741 19.031 18.7097 18.7852 18.9351L20.7058 20.8577L21.4144 20.1492L19.4917 18.2285Z" fill="#2C477C"/>
</g>
<defs>
<clipPath id="clip0_54_73099">
<rect width="28" height="28" fill="white" transform="translate(0.5)"/>
</clipPath>
</defs>
</svg>
