<svg width="29" height="28" viewBox="0 0 29 28" fill="none" xmlns="http://www.w3.org/2000/svg">
<g clip-path="url(#clip0_54_73121)">
<path d="M12.75 8.74903V6.99902H2.25C1.28575 6.99902 0.5 7.78477 0.5 8.74903V12.249H13.1193C12.876 11.1798 12.75 10.0283 12.75 8.74903Z" fill="#2C477C"/>
<path d="M28.4282 15.749C27.2347 17.5883 25.4147 19.1528 22.8072 20.6508C22.4065 20.88 21.955 20.999 21.5 20.999C21.045 20.999 20.5935 20.88 20.198 20.6543C17.5905 19.1528 15.7705 17.5865 14.5753 15.749H0.5V24.499C0.5 25.465 1.28575 26.249 2.25 26.249H26.75C27.716 26.249 28.5 25.465 28.5 24.499V15.749H28.4282ZM8.375 20.999H4.875C4.392 20.999 4 20.607 4 20.124C4 19.641 4.392 19.249 4.875 19.249H8.375C8.858 19.249 9.25 19.641 9.25 20.124C9.25 20.607 8.858 20.999 8.375 20.999Z" fill="#2C477C"/>
<path d="M27.9697 4.44685L21.8447 1.82185C21.6225 1.72735 21.3758 1.72735 21.1535 1.82185L15.0285 4.44685C14.7083 4.58335 14.5 4.9001 14.5 5.2501V8.7501C14.5 13.5644 16.2798 16.3784 21.0643 19.1346C21.199 19.2116 21.3495 19.2501 21.5 19.2501C21.6505 19.2501 21.801 19.2116 21.9357 19.1346C26.7202 16.3854 28.5 13.5714 28.5 8.7501V5.2501C28.5 4.9001 28.2917 4.58335 27.9697 4.44685ZM24.8092 8.42285L21.3092 12.7979C21.1412 13.0044 20.8892 13.1251 20.625 13.1251C20.6128 13.1251 20.5988 13.1251 20.5883 13.1251C20.31 13.1129 20.0527 12.9694 19.897 12.7366L18.147 10.1116C17.8792 9.7091 17.9877 9.1666 18.3902 8.89885C18.7892 8.63285 19.3335 8.73785 19.603 9.1421L20.6897 10.7714L23.4408 7.33085C23.7435 6.9546 24.2948 6.8951 24.671 7.19435C25.049 7.4936 25.1085 8.04485 24.8092 8.42285Z" fill="#2C477C"/>
</g>
<defs>
<clipPath id="clip0_54_73121">
<rect width="28" height="28" fill="white" transform="translate(0.5)"/>
</clipPath>
</defs>
</svg>
