<svg width="29" height="28" viewBox="0 0 29 28" fill="none" xmlns="http://www.w3.org/2000/svg">
<g clip-path="url(#clip0_54_73131)">
<path d="M27.4062 10.5547C28.0103 10.5547 28.5 10.065 28.5 9.46094V5.35938C28.5 4.88732 28.1971 4.46852 27.7488 4.32065L14.8152 0.0550227C14.5923 -0.0184773 14.3516 -0.0183679 14.1288 0.0555149L1.24988 4.32114C0.802203 4.4694 0.5 4.88781 0.5 5.35938V9.46094C0.5 10.065 0.989672 10.5547 1.59375 10.5547H2.41406V21.4375H1.59375C0.989672 21.4375 0.5 21.9272 0.5 22.5313V26.9063C0.5 27.5103 0.989672 28 1.59375 28H19.0391C20.4902 27.9423 20.4892 25.8698 19.0391 25.8125H2.6875V23.625H16.6328C17.2369 23.625 17.7266 23.1353 17.7266 22.5313V10.5547H23.3047V12.6301C18.9734 14.0039 19.8327 20.2874 24.4258 20.3984C26.7828 20.4955 26.7837 23.8556 24.4258 23.9531C23.7269 23.9531 23.09 23.541 22.8033 22.9032C22.5556 22.3523 21.9082 22.1063 21.3573 22.354C20.8063 22.6016 20.5605 23.249 20.8081 23.8C21.2892 24.8702 22.2127 25.6554 23.3047 25.9783V26.9063C23.3624 28.3574 25.4349 28.3563 25.4922 26.9063V25.9949C29.8739 24.6704 29.0508 18.3258 24.4257 18.2109C22.0688 18.1139 22.0678 14.7538 24.4258 14.6563C25.1408 14.6563 25.7835 15.0816 26.063 15.7399C26.299 16.2959 26.9411 16.5552 27.4971 16.3193C28.0531 16.0833 28.3126 15.4411 28.0765 14.8851C27.5966 13.7547 26.6365 12.9324 25.4922 12.614V10.5547H27.4062ZM2.6875 6.14929L14.4734 2.24569L26.3125 6.15038V8.36719H2.6875V6.14929ZM11.1641 10.5547V21.4375H8.97656V10.5547H11.1641ZM4.60156 10.5547H6.78906V21.4375H4.60156V10.5547ZM15.5391 21.4375H13.3516V10.5547H15.5391V21.4375ZM15.5391 5.68751C15.5391 6.29158 15.0494 6.78126 14.4453 6.78126C12.9945 6.72367 12.9949 4.65112 14.4453 4.59376C15.0494 4.59376 15.5391 5.08343 15.5391 5.68751Z" fill="#2A447D"/>
</g>
<defs>
<clipPath id="clip0_54_73131">
<rect width="28" height="28" fill="white" transform="translate(0.5)"/>
</clipPath>
</defs>
</svg>
