<svg width="29" height="28" viewBox="0 0 29 28" fill="none" xmlns="http://www.w3.org/2000/svg">
<g clip-path="url(#clip0_54_73108)">
<path d="M23.25 15.751C22.284 15.751 21.5 16.535 21.5 17.501C21.5 18.467 22.284 19.251 23.25 19.251H28.5V15.751H23.25Z" fill="#2A447D"/>
<path d="M23.25 14.0011H26.75V9.62607C26.75 9.13607 26.365 8.75107 25.875 8.75107H24.125V6.12607C24.125 5.63607 23.74 5.25107 23.25 5.25107H21.1675L19.6625 2.24107C19.435 1.80357 18.91 1.62857 18.49 1.83857L16.46 2.85357L16.1625 2.24107C15.935 1.80357 15.41 1.62857 14.99 1.83857L8.165 5.25107H3.125C1.6725 5.25107 0.5 6.42357 0.5 7.87607V23.6261C0.5 25.0786 1.6725 26.2511 3.125 26.2511H25.875C26.365 26.2511 26.75 25.8661 26.75 25.3761V21.0011H23.25C21.325 21.0011 19.75 19.4261 19.75 17.5011C19.75 15.5761 21.325 14.0011 23.25 14.0011ZM22.375 7.00107V7.66607L22.0425 7.00107H22.375ZM2.3025 8.17357C2.2675 8.08607 2.25 7.98107 2.25 7.87607C2.25 7.38607 2.635 7.00107 3.125 7.00107H4.665L2.3025 8.17357ZM5.085 8.75107L14.99 3.79857L17.4575 8.75107H5.085ZM19.4175 8.75107L17.2475 4.41107L18.49 3.79857L20.9575 8.75107H19.4175Z" fill="#2A447D"/>
</g>
<defs>
<clipPath id="clip0_54_73108">
<rect width="28" height="28" fill="white" transform="translate(0.5)"/>
</clipPath>
</defs>
</svg>
