<svg width="34" height="32" viewBox="0 0 34 32" fill="none"
    xmlns="http://www.w3.org/2000/svg">
    <path d="M33.1397 15.6129C33.7389 14.9539 33.6811 13.9439 33.0106 13.3576L18.2384 0.431827C17.5679 -0.154531 16.4929 -0.142248 15.8365 0.459518L1.01408 14.0467C0.357688 14.6485 0.325472 15.6572 0.942753 16.2988L1.31437 16.6859C1.9309 17.3275 2.92745 17.404 3.5388 16.8562L4.64655 15.8642V30.3876C4.64655 31.2786 5.36856 32 6.25898 32H12.0368C12.9272 32 13.6492 31.2786 13.6492 30.3876V20.2271H21.0189V30.3876C21.0061 31.278 21.6432 31.9994 22.5336 31.9994H28.6566C29.547 31.9994 30.269 31.278 30.269 30.3869V16.0687C30.269 16.0687 30.575 16.3368 30.9525 16.6685C31.3293 16.9996 32.1207 16.7341 32.7199 16.0745L33.1397 15.6129Z" fill="#95C939"/>
</svg>
