<svg width="35" height="32" viewBox="0 0 35 32" fill="none"
    xmlns="http://www.w3.org/2000/svg">
    <path d="M25.6875 31.125H3.72917C1.94925 31.125 0.5 29.6757 0.5 27.8958V11.1042C0.5 9.32425 1.94925 7.875 3.72917 7.875H25.6875C27.4674 7.875 28.9167 9.32425 28.9167 11.1042V16.2708C28.9167 16.6273 28.6273 16.9167 28.2708 16.9167C27.9143 16.9167 27.625 16.6273 27.625 16.2708V11.1042C27.625 10.036 26.7557 9.16667 25.6875 9.16667H3.72917C2.66096 9.16667 1.79167 10.036 1.79167 11.1042V27.8958C1.79167 28.964 2.66096 29.8333 3.72917 29.8333H25.6875C26.7557 29.8333 27.625 28.964 27.625 27.8958V24.0208C27.625 23.6643 27.9143 23.375 28.2708 23.375C28.6273 23.375 28.9167 23.6643 28.9167 24.0208V27.8958C28.9167 29.6757 27.4674 31.125 25.6875 31.125Z" fill="#2A447D"/>
    <path d="M29.5628 24.6667H21.8128C19.3199 24.6667 17.292 22.6388 17.292 20.1458C17.292 17.6529 19.3199 15.625 21.8128 15.625H29.5628C30.631 15.625 31.5003 16.4943 31.5003 17.5625V22.7292C31.5003 23.7974 30.631 24.6667 29.5628 24.6667ZM21.8128 16.9167C20.0329 16.9167 18.5837 18.3659 18.5837 20.1458C18.5837 21.9258 20.0329 23.375 21.8128 23.375H29.5628C29.9193 23.375 30.2087 23.0857 30.2087 22.7292V17.5625C30.2087 17.206 29.9193 16.9167 29.5628 16.9167H21.8128Z" fill="#2A447D"/>
    <path d="M21.8125 22.083C20.7443 22.083 19.875 21.2137 19.875 20.1455C19.875 19.0773 20.7443 18.208 21.8125 18.208C22.8807 18.208 23.75 19.0773 23.75 20.1455C23.75 21.2137 22.8807 22.083 21.8125 22.083ZM21.8125 19.4997C21.456 19.4997 21.1667 19.789 21.1667 20.1455C21.1667 20.502 21.456 20.7913 21.8125 20.7913C22.169 20.7913 22.4583 20.502 22.4583 20.1455C22.4583 19.789 22.169 19.4997 21.8125 19.4997Z" fill="#2A447D"/>
    <path d="M28.5285 0.477886C25.3884 0.552421 22.903 3.15868 22.9775 6.29881C23.052 9.43894 25.6583 11.9243 28.7984 11.8498C31.9385 11.7753 34.4239 9.16901 34.3494 6.02888C34.2749 2.88876 31.6686 0.40335 28.5285 0.477886ZM31.1639 6.23168C31.1244 6.27343 31.0771 6.30699 31.0246 6.33044C30.9722 6.3539 30.9156 6.36679 30.8582 6.36838C30.8007 6.36998 30.7436 6.36024 30.6899 6.33972C30.6362 6.31921 30.5871 6.28832 30.5454 6.24882L29.07 4.8528L29.1566 8.50439C29.1594 8.62039 29.1159 8.73274 29.0359 8.81671C28.9558 8.90068 28.8456 8.9494 28.7296 8.95215C28.6136 8.95491 28.5013 8.91147 28.4173 8.83139C28.3333 8.75131 28.2846 8.64116 28.2819 8.52516L28.1952 4.87357L26.7877 6.33802C26.7072 6.42168 26.5968 6.46994 26.4807 6.47219C26.3646 6.47443 26.2524 6.43047 26.1687 6.34997C26.0851 6.26948 26.0368 6.15905 26.0346 6.04297C26.0323 5.92689 26.0763 5.81468 26.1568 5.73101L28.2922 3.50887C28.3722 3.42563 28.4818 3.37738 28.5972 3.37464C28.7127 3.3719 28.8245 3.41489 28.9083 3.49425L31.1468 5.61257C31.1886 5.65206 31.2222 5.69942 31.2457 5.75193C31.2692 5.80443 31.2821 5.86106 31.2837 5.91857C31.2853 5.97607 31.2756 6.03333 31.255 6.08706C31.2344 6.14078 31.2035 6.18993 31.1639 6.23168V6.23168Z" fill="#2A447D"/>
</svg>
