<svg width="38" height="37" viewBox="0 0 38 37" fill="none" xmlns="http://www.w3.org/2000/svg">
<g clip-path="url(#clip0_54_74946)">
<path d="M14.375 0H0.5V13.875H14.375V0ZM12.0625 11.5625H2.8125V2.3125H12.0625V11.5625Z" fill="white"/>
<path d="M5.125 4.625H9.75V9.25H5.125V4.625Z" fill="white"/>
<path d="M0.5 37H14.375V23.125H0.5V37ZM2.8125 25.4375H12.0625V34.6875H2.8125V25.4375Z" fill="white"/>
<path d="M5.125 27.75H9.75V32.375H5.125V27.75Z" fill="white"/>
<path d="M23.625 0V13.875H37.5V0H23.625ZM35.1875 11.5625H25.9375V2.3125H35.1875V11.5625Z" fill="white"/>
<path d="M28.25 4.625H32.875V9.25H28.25V4.625Z" fill="white"/>
<path d="M5.125 16.1875H0.5V20.8125H7.4375V18.5H5.125V16.1875Z" fill="white"/>
<path d="M16.6875 20.8125H21.3125V25.4375H16.6875V20.8125Z" fill="white"/>
<path d="M7.4375 16.1875H12.0625V18.5H7.4375V16.1875Z" fill="white"/>
<path d="M21.3125 27.75H16.6875V30.0625H19V32.375H21.3125V30.0625V27.75Z" fill="white"/>
<path d="M14.375 16.1875V18.5H12.0625V20.8125H16.6875V16.1875H14.375Z" fill="white"/>
<path d="M19 9.25H21.3125V13.875H19V9.25Z" fill="white"/>
<path d="M21.3125 18.5V20.8125H25.9375V16.1875H19V18.5H21.3125Z" fill="white"/>
<path d="M16.6875 13.875H19V16.1875H16.6875V13.875Z" fill="white"/>
<path d="M21.3125 32.375H25.9375V37H21.3125V32.375Z" fill="white"/>
<path d="M16.6875 32.375H19V37H16.6875V32.375Z" fill="white"/>
<path d="M21.3125 25.4375H23.625V27.75H21.3125V25.4375Z" fill="white"/>
<path d="M21.3125 6.9375V2.3125H19V0H16.6875V9.25H19V6.9375H21.3125Z" fill="white"/>
<path d="M28.25 32.375H30.5625V37H28.25V32.375Z" fill="white"/>
<path d="M28.25 27.75H32.875V30.0625H28.25V27.75Z" fill="white"/>
<path d="M25.9375 30.0625H28.25V32.375H25.9375V30.0625Z" fill="white"/>
<path d="M23.625 27.75H25.9375V30.0625H23.625V27.75Z" fill="white"/>
<path d="M32.875 23.125V25.4375H35.1875V27.75H37.5V23.125H35.1875H32.875Z" fill="white"/>
<path d="M35.1875 30.0625H32.875V37H37.5V32.375H35.1875V30.0625Z" fill="white"/>
<path d="M23.625 23.125V25.4375H30.5625V20.8125H25.9375V23.125H23.625Z" fill="white"/>
<path d="M28.25 16.1875V18.5H32.875V20.8125H37.5V16.1875H32.875H28.25Z" fill="white"/>
</g>
<defs>
<clipPath id="clip0_54_74946">
<rect width="37" height="37" fill="white" transform="translate(0.5)"/>
</clipPath>
</defs>
</svg>
