<svg width="33" height="32" viewBox="0 0 33 32" fill="none"
    xmlns="http://www.w3.org/2000/svg">
    <path d="M30.8928 30.9338V11.2108C30.8928 10.9164 30.6542 10.6777 30.3598 10.6777H25.0292C24.7349 10.6777 24.4962 10.9164 24.4962 11.2108V30.9338H23.4301V18.6735C23.4301 18.3792 23.1914 18.1405 22.897 18.1405H17.5665C17.2721 18.1405 17.0334 18.3792 17.0334 18.6735V30.9338H15.9673V13.343C15.9673 13.0486 15.7287 12.8099 15.4343 12.8099H10.1038C9.80937 12.8099 9.5707 13.0486 9.5707 13.343V30.9338H8.50459V20.8058C8.50459 20.5114 8.26592 20.2727 7.97154 20.2727H2.641C2.34662 20.2727 2.10795 20.5114 2.10795 20.8058V30.9338H0.508789V31.9999H32.492V30.9338H30.8928ZM7.43848 30.9338H3.17406V21.3388H7.43848V30.9338ZM14.9012 30.9338H10.6368V13.8761H14.9012V30.9338ZM22.364 30.9338H18.0996V19.2066H22.364V30.9338ZM29.8267 30.9338H25.5623V11.7438H29.8267V30.9338Z" fill="#2A447D"/>
    <path d="M3.8364 14.5004C4.27244 14.7886 4.78364 14.9424 5.30636 14.9423C6.77833 14.9422 7.97157 13.7489 7.9715 12.2769C7.9715 11.7544 7.81785 11.2433 7.52973 10.8074L11.3027 7.03391C11.7351 7.32329 12.2435 7.47834 12.7638 7.47954C12.9207 7.47961 13.0773 7.46588 13.2318 7.43849C13.7389 7.34961 14.2091 7.11466 14.5847 6.76258L17.7473 9.19384C17.2194 10.5679 17.9054 12.1098 19.2795 12.6376C20.6536 13.1655 22.1954 12.4795 22.7233 11.1054C23.0329 10.2996 22.933 9.39373 22.4552 8.67464L26.2271 4.90276C27.4583 5.71766 29.1169 5.38017 29.9318 4.14902C30.7467 2.91787 30.4092 1.2592 29.178 0.444366C27.9469 -0.370539 26.2882 -0.0330497 25.4734 1.1981C24.8813 2.09263 24.8813 3.25449 25.4734 4.14902L21.7015 7.92091C20.645 7.22261 19.2431 7.36407 18.3475 8.2594C18.3374 8.26952 18.3315 8.28125 18.3219 8.29085L15.2052 5.8953C15.8039 4.55054 15.199 2.9751 13.8543 2.37642C12.5095 1.77773 10.9341 2.38255 10.3354 3.72731C9.96512 4.55907 10.045 5.52237 10.5473 6.2817L6.77599 10.0536C5.54804 9.24181 3.89457 9.57924 3.0828 10.8072C2.27109 12.0351 2.60845 13.6886 3.8364 14.5004ZM27.6946 1.0829C28.5778 1.0829 29.2938 1.79885 29.2938 2.68206C29.2938 3.56526 28.5778 4.28122 27.6946 4.28122C26.8114 4.28122 26.0955 3.56526 26.0955 2.68206C26.0955 1.79885 26.8114 1.0829 27.6946 1.0829ZM19.1005 9.0144C19.4005 8.71422 19.8075 8.54558 20.2319 8.54565C21.1151 8.54551 21.8311 9.2614 21.8312 10.1446C21.8313 10.569 21.6626 10.976 21.3625 11.2759C20.7295 11.8793 19.7343 11.8793 19.1013 11.2759C18.4765 10.6516 18.4762 9.63907 19.1005 9.0144ZM11.4593 3.89709C11.4593 3.89702 11.4593 3.89695 11.4594 3.89689C11.7018 3.54867 12.0733 3.31179 12.4914 3.2391C12.5842 3.22317 12.6782 3.21518 12.7723 3.21511C13.0995 3.21544 13.4187 3.31652 13.6865 3.50456C14.4099 4.01123 14.5857 5.00837 14.079 5.73179C13.5724 6.45521 12.5752 6.63092 11.8518 6.12432C11.1284 5.61765 10.9526 4.62051 11.4593 3.89709ZM4.17503 11.1466C4.17529 11.1463 4.17549 11.1461 4.17576 11.1459C4.8005 10.5215 5.8131 10.5217 6.4375 11.1464C7.06191 11.7712 7.06171 12.7838 6.43697 13.4082C5.80397 14.0115 4.80876 14.0115 4.17576 13.4082C3.55102 12.7838 3.55075 11.7713 4.17503 11.1466Z" fill="#2A447D"/>
</svg>
