<svg width="35" height="32" viewBox="0 0 35 32" fill="none"
    xmlns="http://www.w3.org/2000/svg">
    <path d="M34.0009 9.46969L29.7509 5.46969C29.6395 5.36481 29.4975 5.29338 29.3429 5.26444C29.1883 5.23551 29.0281 5.25036 28.8825 5.30712C28.7369 5.36389 28.6125 5.46001 28.5249 5.58334C28.4373 5.70667 28.3906 5.85167 28.3906 6V7.25H26.7968V3C26.796 2.2709 26.4879 1.5719 25.9401 1.05635C25.3923 0.540802 24.6496 0.250811 23.875 0.25H11.125C10.3503 0.250811 9.60761 0.540802 9.05984 1.05635C8.51206 1.5719 8.20395 2.2709 8.20309 3V19.25H6.60934V18C6.60933 17.8517 6.56259 17.7067 6.47503 17.5833C6.38747 17.46 6.26301 17.3639 6.11741 17.3071C5.9718 17.2504 5.81158 17.2355 5.65701 17.2644C5.50244 17.2934 5.36045 17.3648 5.24901 17.4697L0.999006 21.4697C0.849574 21.6103 0.765625 21.8011 0.765625 22C0.765625 22.1989 0.849574 22.3897 0.999006 22.5303L5.24901 26.5303C5.72222 27.0046 6.63158 26.6475 6.60934 26V24.75H8.20309V29C8.20395 29.7291 8.51206 30.4281 9.05984 30.9436C9.60761 31.4592 10.3503 31.7492 11.125 31.75H23.875C24.6496 31.7492 25.3923 31.4592 25.9401 30.9436C26.4879 30.4281 26.796 29.7291 26.7968 29V12.75H28.3906V14C28.3684 14.6477 29.2777 15.0044 29.7509 14.5303L34.0009 10.5303C34.1504 10.3897 34.2343 10.1989 34.2343 10C34.2343 9.8011 34.1504 9.61034 34.0009 9.46969ZM11.125 1.75H23.875C24.2271 1.75038 24.5647 1.8822 24.8136 2.11654C25.0626 2.35087 25.2027 2.6686 25.2031 3V4.25H9.79684V3C9.79724 2.6686 9.9373 2.35087 10.1863 2.11654C10.4353 1.8822 10.7728 1.75038 11.125 1.75ZM23.875 30.25H11.125C10.7728 30.2496 10.4353 30.1178 10.1863 29.8835C9.9373 29.6491 9.79724 29.3314 9.79684 29V27.75H25.2031V29C25.2027 29.3314 25.0626 29.6491 24.8136 29.8835C24.5647 30.1178 24.2271 30.2496 23.875 30.25ZM29.9843 12.1893V12C29.9843 11.8011 29.9004 11.6103 29.7509 11.4697C29.6015 11.329 29.3988 11.25 29.1875 11.25H22.8125C22.6011 11.25 22.3984 11.329 22.249 11.4697C22.0995 11.6103 22.0156 11.8011 22.0156 12C22.0156 12.1989 22.0995 12.3897 22.249 12.5303C22.3984 12.671 22.6011 12.75 22.8125 12.75H25.2031V26.25H9.79684V24.75H12.1875C12.3988 24.75 12.6015 24.671 12.7509 24.5303C12.9004 24.3897 12.9843 24.1989 12.9843 24C12.9843 23.8011 12.9004 23.6103 12.7509 23.4697C12.6015 23.329 12.3988 23.25 12.1875 23.25H5.81246C5.60112 23.25 5.39843 23.329 5.24899 23.4697C5.09954 23.6103 5.01559 23.8011 5.01559 24V24.1893L2.68944 22L5.01559 19.8107V20C5.01559 20.1989 5.09954 20.3897 5.24899 20.5303C5.39843 20.671 5.60112 20.75 5.81246 20.75H12.1875C12.3988 20.75 12.6015 20.671 12.7509 20.5303C12.9004 20.3897 12.9843 20.1989 12.9843 20C12.9843 19.8011 12.9004 19.6103 12.7509 19.4697C12.6015 19.329 12.3988 19.25 12.1875 19.25H9.79684V5.75H25.2031V7.25H22.8125C22.6011 7.25 22.3984 7.32902 22.249 7.46967C22.0995 7.61032 22.0156 7.80109 22.0156 8C22.0156 8.19891 22.0995 8.38968 22.249 8.53033C22.3984 8.67098 22.6011 8.75 22.8125 8.75H29.1875C29.3988 8.75 29.6015 8.67098 29.7509 8.53033C29.9004 8.38968 29.9843 8.19891 29.9843 8V7.81069L32.3105 10L29.9843 12.1893Z" fill="#2A447D"/>
    <path d="M16.4375 12.75H19.0937C19.305 12.7502 19.5076 12.8293 19.657 12.9699C19.8064 13.1105 19.8904 13.3012 19.8906 13.5C19.8906 13.6989 19.9746 13.8897 20.124 14.0303C20.2735 14.171 20.4762 14.25 20.6875 14.25C20.8988 14.25 21.1015 14.171 21.251 14.0303C21.4004 13.8897 21.4844 13.6989 21.4844 13.5C21.4837 12.9035 21.2316 12.3316 20.7834 11.9097C20.3352 11.4879 19.7276 11.2507 19.0937 11.25H18.2969V10C18.2969 9.80109 18.2129 9.61032 18.0635 9.46967C17.914 9.32902 17.7113 9.25 17.5 9.25C17.2887 9.25 17.086 9.32902 16.9365 9.46967C16.7871 9.61032 16.7031 9.80109 16.7031 10V11.25H16.4375C15.6626 11.25 14.9194 11.5397 14.3714 12.0555C13.8235 12.5712 13.5156 13.2707 13.5156 14C13.5156 14.7293 13.8235 15.4288 14.3714 15.9445C14.9194 16.4603 15.6626 16.75 16.4375 16.75H18.5625C18.9147 16.75 19.2526 16.8817 19.5016 17.1161C19.7507 17.3505 19.8906 17.6685 19.8906 18C19.8906 18.3315 19.7507 18.6495 19.5016 18.8839C19.2526 19.1183 18.9147 19.25 18.5625 19.25H15.9062C15.695 19.2498 15.4924 19.1707 15.343 19.0301C15.1936 18.8895 15.1096 18.6988 15.1094 18.5C15.1094 18.3011 15.0254 18.1103 14.876 17.9697C14.7265 17.829 14.5238 17.75 14.3125 17.75C14.1012 17.75 13.8985 17.829 13.749 17.9697C13.5996 18.1103 13.5156 18.3011 13.5156 18.5C13.5163 19.0965 13.7684 19.6684 14.2166 20.0903C14.6648 20.5121 15.2724 20.7493 15.9062 20.75H16.7031V22C16.7031 22.1989 16.7871 22.3897 16.9365 22.5303C17.086 22.671 17.2887 22.75 17.5 22.75C17.7113 22.75 17.914 22.671 18.0635 22.5303C18.2129 22.3897 18.2969 22.1989 18.2969 22V20.75H18.5625C19.3374 20.75 20.0806 20.4603 20.6286 19.9445C21.1765 19.4288 21.4844 18.7293 21.4844 18C21.4844 17.2707 21.1765 16.5712 20.6286 16.0555C20.0806 15.5397 19.3374 15.25 18.5625 15.25H16.4375C16.0853 15.25 15.7474 15.1183 15.4984 14.8839C15.2493 14.6495 15.1094 14.3315 15.1094 14C15.1094 13.6685 15.2493 13.3505 15.4984 13.1161C15.7474 12.8817 16.0853 12.75 16.4375 12.75Z" fill="#2A447D"/>
</svg>
