<svg width="23" height="33" viewBox="0 0 23 33" fill="none"
    xmlns="http://www.w3.org/2000/svg">
    <path d="M11.1992 23.7627C12.7788 23.7627 14.3228 23.2943 15.6362 22.4168C16.9495 21.5392 17.9732 20.2919 18.5776 18.8326C19.1821 17.3733 19.3402 15.7675 19.0321 14.2183C18.7239 12.6691 17.9633 11.2461 16.8464 10.1292C15.7295 9.01228 14.3065 8.25165 12.7573 7.9435C11.2081 7.63534 9.60229 7.7935 8.14298 8.39797C6.68367 9.00243 5.43638 10.0261 4.55883 11.3394C3.68128 12.6528 3.21289 14.1968 3.21289 15.7764C3.21532 17.8937 4.05751 19.9237 5.55472 21.4209C7.05192 22.9181 9.08186 23.7603 11.1992 23.7627ZM11.1992 9.0752C12.5246 9.0752 13.8202 9.46822 14.9222 10.2046C16.0242 10.9409 16.8831 11.9875 17.3903 13.2119C17.8975 14.4364 18.0302 15.7838 17.7716 17.0837C17.5131 18.3836 16.8748 19.5776 15.9377 20.5148C15.0005 21.452 13.8065 22.0902 12.5066 22.3488C11.2067 22.6073 9.85927 22.4746 8.63479 21.9674C7.41031 21.4602 6.36373 20.6013 5.6274 19.4993C4.89106 18.3973 4.49805 17.1017 4.49805 15.7764C4.49999 13.9997 5.20663 12.2964 6.46292 11.0401C7.71921 9.78378 9.42255 9.07714 11.1992 9.0752Z" fill="white"/>
    <path d="M9.79297 17.8249C9.79297 17.6545 9.72527 17.4911 9.60476 17.3706C9.48426 17.2501 9.32081 17.1824 9.15039 17.1824C8.97997 17.1824 8.81653 17.2501 8.69602 17.3706C8.57551 17.4911 8.50781 17.6545 8.50781 17.8249C8.50886 18.4264 8.71115 19.0102 9.08247 19.4833C9.45379 19.9564 9.97277 20.2917 10.5567 20.4356V20.9706C10.5567 21.141 10.6244 21.3045 10.7449 21.425C10.8654 21.5455 11.0289 21.6132 11.1993 21.6132C11.3697 21.6132 11.5332 21.5455 11.6537 21.425C11.7742 21.3045 11.8419 21.141 11.8419 20.9706V20.4356C12.4263 20.2926 12.9458 19.9575 13.3172 19.4842C13.6886 19.0109 13.8905 18.4266 13.8905 17.8249C13.8905 17.2233 13.6886 16.639 13.3172 16.1657C12.9458 15.6923 12.4263 15.3573 11.8419 15.2142V12.4835C12.0711 12.6007 12.2636 12.7787 12.3983 12.9981C12.533 13.2175 12.6047 13.4697 12.6056 13.7271C12.6056 13.8975 12.6733 14.061 12.7938 14.1815C12.9143 14.302 13.0778 14.3697 13.2482 14.3697C13.4186 14.3697 13.5821 14.302 13.7026 14.1815C13.8231 14.061 13.8908 13.8975 13.8908 13.7271C13.8897 13.1257 13.6874 12.5419 13.3161 12.0688C12.9448 11.5956 12.4258 11.2604 11.8419 11.1164V10.5811C11.8419 10.4106 11.7742 10.2472 11.6537 10.1267C11.5332 10.0062 11.3697 9.93848 11.1993 9.93848C11.0289 9.93848 10.8654 10.0062 10.7449 10.1267C10.6244 10.2472 10.5567 10.4106 10.5567 10.5811V11.1164C9.97232 11.2595 9.45282 11.5945 9.08139 12.0679C8.70997 12.5412 8.5081 13.1255 8.5081 13.7271C8.5081 14.3288 8.70997 14.913 9.08139 15.3864C9.45282 15.8597 9.97232 16.1947 10.5567 16.3378V19.0686C10.3276 18.9513 10.1351 18.7733 10.0004 18.5539C9.86564 18.3346 9.79389 18.0824 9.79297 17.8249ZM11.8419 16.5813C12.0714 16.698 12.2641 16.876 12.3987 17.0955C12.5333 17.315 12.6046 17.5674 12.6046 17.8249C12.6046 18.0824 12.5333 18.3349 12.3987 18.5544C12.2641 18.7739 12.0714 18.9519 11.8419 19.0686V16.5813ZM9.79297 13.7271C9.79385 13.4697 9.86558 13.2175 10.0003 12.9981C10.135 12.7787 10.3275 12.6007 10.5567 12.4835V14.9719C10.3274 14.8545 10.1348 14.6763 10.0001 14.4567C9.86535 14.2372 9.79369 13.9847 9.79297 13.7271Z" fill="white"/>
    <path d="M19.6871 0H2.71131C1.99243 0.000874722 1.30325 0.286861 0.794961 0.795221C0.286671 1.30358 0.000777372 1.9928 0 2.71168V30.2434C0.000680365 30.9623 0.286543 31.6516 0.794855 32.16C1.30317 32.6683 1.9924 32.9543 2.71131 32.9551H19.6871C20.406 32.9542 21.0952 32.6682 21.6035 32.1599C22.1118 31.6515 22.3977 30.9623 22.3984 30.2434V2.71168C22.3977 1.9928 22.1118 1.30358 21.6035 0.795221C21.0952 0.286861 20.406 0.000874722 19.6871 0ZM2.71131 1.28516H19.6871C19.95 1.28609 20.2074 1.35984 20.4309 1.49823C20.6544 1.63661 20.8352 1.83421 20.9532 2.0691H1.44525C1.56324 1.83421 1.74402 1.63661 1.9675 1.49823C2.19099 1.35984 2.44845 1.28609 2.71131 1.28516ZM21.1133 30.2434C21.1129 30.6216 20.9625 30.9841 20.6952 31.2515C20.4278 31.519 20.0653 31.6694 19.6871 31.6699H2.71131C2.33316 31.6694 1.97064 31.519 1.70327 31.2515C1.43591 30.9841 1.28554 30.6216 1.28516 30.2434V29.0537H21.1133V30.2434ZM21.1133 27.7686H1.28516V3.35426H21.1133V27.7686Z" fill="white"/>
    <path d="M11.1994 31.1652C11.3599 31.1653 11.5167 31.1178 11.6502 31.0287C11.7836 30.9396 11.8877 30.8129 11.9491 30.6647C12.0105 30.5164 12.0266 30.3533 11.9953 30.1959C11.9641 30.0386 11.8868 29.894 11.7733 29.7805C11.6599 29.6671 11.5153 29.5898 11.3579 29.5585C11.2006 29.5273 11.0374 29.5433 10.8892 29.6048C10.741 29.6662 10.6143 29.7702 10.5252 29.9037C10.4361 30.0371 10.3886 30.194 10.3887 30.3545C10.3889 30.5694 10.4743 30.7755 10.6263 30.9275C10.7784 31.0795 10.9845 31.165 11.1994 31.1652Z" fill="white"/>
</svg>
