<svg width="34" height="34" viewBox="0 0 34 34" fill="none"
    xmlns="http://www.w3.org/2000/svg">
    <g clip-path="url(#clip0_54_48363)">
        <path d="M33.3369 16.5312H29.4039C29.0371 16.5312 28.7398 16.8285 28.7398 17.1953V17.7564H24.6042C24.517 17.7564 24.4307 17.7735 24.3502 17.807L19.0528 19.9994C18.4398 20.2534 17.9636 20.7312 17.7122 21.3452C17.4606 21.9589 17.4645 22.6334 17.7231 23.2445L17.741 23.2868C17.8946 23.6494 18.1208 23.9579 18.3955 24.2017C17.5893 24.4204 16.7439 24.438 15.9221 24.2499L10.7214 23.059C10.0851 22.9135 9.43193 23.0274 8.88252 23.3799C8.33337 23.7322 7.9575 24.2785 7.82469 24.9174C7.5614 26.1832 8.337 27.4245 9.59016 27.743L15.7955 29.3202C16.3211 29.4535 16.8539 29.5199 17.3849 29.5199C18.1809 29.5199 18.9732 29.3707 19.7293 29.074L27.6213 25.9788H28.7398V26.3282C28.7398 26.695 29.0373 26.9923 29.4039 26.9923H33.3369C33.7037 26.9923 34.0009 26.695 34.0009 26.3282V17.1953C34.0009 16.8285 33.7037 16.5312 33.3369 16.5312ZM27.4955 24.6507C27.4125 24.6507 27.3302 24.6663 27.2532 24.6964L19.2442 27.8377C18.2437 28.2299 17.1644 28.2973 16.1226 28.0328L9.91726 26.4556C9.35488 26.3127 9.00677 25.7558 9.1248 25.1877C9.18446 24.9008 9.35307 24.6556 9.59976 24.4977C9.77615 24.3843 9.97667 24.3259 10.1811 24.3259C10.262 24.3259 10.3437 24.335 10.4249 24.3537L15.6256 25.5443C16.8769 25.8307 18.1716 25.7389 19.37 25.2782L20.8792 24.6979C20.9103 24.6873 20.9412 24.6759 20.9721 24.6639C22.3062 24.1496 24.0089 23.4948 24.3749 23.354L24.4462 23.3265C24.7884 23.195 24.9593 22.8105 24.8278 22.4684C24.6963 22.126 24.3121 21.9553 23.9694 22.0868C23.9694 22.0868 23.9422 22.0974 23.8919 22.1166L20.4307 23.4476C19.844 23.6378 19.2095 23.3488 18.9641 22.769L18.9459 22.7265C18.8263 22.4443 18.8248 22.1325 18.941 21.8487C19.0572 21.5649 19.2772 21.3439 19.5607 21.2266L24.7362 19.0845H28.7398V24.6507H27.4955ZM32.6728 25.6642H30.0679V17.8594H32.6728V25.6642Z" fill="white"/>
        <path d="M6.46683 16.2532H5.2614V10.0484H5.44531C5.93636 10.0484 6.42662 9.93007 6.86319 9.70621C6.88368 9.69557 6.90392 9.68416 6.92311 9.67145L11.2237 6.86552C11.818 6.57396 12.5401 6.64037 13.0719 7.03777L13.3824 7.26915C13.3635 7.29587 13.3453 7.3231 13.3269 7.34982C13.2449 7.46915 13.1661 7.59081 13.0919 7.71506C12.6328 8.4821 12.3378 9.34512 12.2294 10.2253C11.7767 10.274 11.3575 10.4738 11.0312 10.7998C10.6533 11.1778 10.445 11.681 10.445 12.2164C10.445 13.3207 11.3435 14.2192 12.4478 14.2192H17.3639C17.6353 14.2192 17.8908 14.3251 18.0825 14.5163C18.2749 14.7092 18.381 14.965 18.3813 15.2363C18.381 15.6415 18.1437 16.0068 17.774 16.1678C17.7312 16.1868 17.6926 16.2008 17.6563 16.2109C17.6529 16.2119 17.6498 16.213 17.6464 16.214C17.5569 16.24 17.462 16.2532 17.3639 16.2532H11.778C11.4115 16.2532 11.114 16.5505 11.114 16.9173C11.114 17.284 11.4115 17.5813 11.778 17.5813H17.3639C17.5354 17.5813 17.7045 17.5626 17.869 17.5266C18.1478 17.5624 18.4303 17.5818 18.7113 17.5818C22.3135 17.5818 25.2445 14.6511 25.2445 11.0486C25.2445 7.44632 22.3135 4.51562 18.7113 4.51562C17.0514 4.51562 15.4625 5.14778 14.2602 6.26735L13.8665 5.97345C12.923 5.26866 11.6361 5.16049 10.5887 5.69823C10.5682 5.7086 10.5485 5.72028 10.529 5.73273L6.22896 8.53839C5.98616 8.65746 5.71587 8.71997 5.44531 8.71997H5.26114V8.47977C5.26114 8.11298 4.96387 7.8157 4.59708 7.8157H0.664062C0.297272 7.8157 0 8.11298 0 8.47977V17.6127C0 17.9795 0.297272 18.2768 0.664062 18.2768H4.59708C4.96387 18.2768 5.26114 17.9795 5.26114 17.6127V17.5813H6.46683C6.83336 17.5813 7.13089 17.284 7.13089 16.9173C7.13089 16.5505 6.83336 16.2532 6.46683 16.2532ZM11.7731 12.2164C11.7731 12.0359 11.8431 11.8662 11.9705 11.7391C12.0369 11.6727 12.115 11.6221 12.2001 11.5887C12.2361 12.0328 12.3171 12.4675 12.4416 12.8909C12.0724 12.8875 11.7731 12.5863 11.7731 12.2164ZM23.9161 11.0489C23.9161 13.6483 22.0004 15.8091 19.5063 16.193C19.6396 15.8937 19.7094 15.5642 19.7094 15.2363C19.7094 14.834 19.608 14.4473 19.4181 14.1038C19.7063 14.0584 19.9725 13.9253 20.1828 13.715C20.4459 13.4522 20.5906 13.1028 20.5906 12.7311V11.749C20.5906 10.9817 19.9662 10.3573 19.1989 10.3573H18.2246C18.1896 10.3573 18.1611 10.3288 18.1611 10.2937V9.36665C18.1611 9.33163 18.1896 9.30336 18.2246 9.30336H18.7115H18.7118H18.712H19.1989C19.2339 9.30336 19.2625 9.33163 19.2625 9.36665C19.2625 9.73344 19.5598 10.0307 19.9265 10.0307C20.2931 10.0307 20.5906 9.73344 20.5906 9.36665C20.5906 8.65953 20.0596 8.0751 19.3758 7.98769V7.7576C19.3758 7.39081 19.0786 7.09354 18.7118 7.09354C18.345 7.09354 18.0477 7.39081 18.0477 7.7576V7.98769C17.3637 8.0751 16.8329 8.65953 16.8329 9.36665V10.2937C16.8329 11.0611 17.4573 11.6854 18.2246 11.6854H19.1989C19.2339 11.6854 19.2625 11.714 19.2625 11.749V12.7311C19.2625 12.7484 19.2563 12.7635 19.2438 12.7759C19.2314 12.7881 19.2166 12.7944 19.1989 12.7944H18.2246C18.1896 12.7944 18.1611 12.7658 18.1611 12.7311V12.6411C18.1611 12.2743 17.8638 11.977 17.497 11.977C17.1302 11.977 16.8329 12.2743 16.8329 12.6411V12.7311C16.8329 12.785 16.8368 12.8382 16.8428 12.8909H13.8416C13.619 12.3051 13.5064 11.687 13.5064 11.0489C13.5064 10.0759 13.7832 9.10181 14.3046 8.27925C14.4545 8.04294 14.6216 7.81752 14.807 7.60767C15.7951 6.48654 17.2171 5.84375 18.7113 5.84375C21.5813 5.84375 23.9161 8.1786 23.9161 11.0489ZM3.93301 16.9489H1.32812V9.14383H3.93301V16.9489Z" fill="white"/>
        <path d="M9.65527 16.5488C9.49937 16.3105 9.1938 16.2007 8.92117 16.2788C8.65762 16.3546 8.46541 16.5904 8.4418 16.8632C8.41794 17.139 8.57799 17.4082 8.8296 17.5216C9.07889 17.6342 9.37901 17.5802 9.57304 17.387C9.79431 17.166 9.82855 16.8085 9.65527 16.5488Z" fill="white"/>
    </g>
    <defs>
        <clipPath id="clip0_54_48363">
            <rect width="34" height="34" fill="white"/>
        </clipPath>
    </defs>
</svg>
