<svg width="32" height="32" viewBox="0 0 32 32" fill="none"
    xmlns="http://www.w3.org/2000/svg">
    <path d="M7.27498 15.7673C8.32423 16.454 8.9966 16.6267 9.95985 16.6602V17.6804C9.95985 18.0255 10.2397 18.3054 10.5849 18.3054C10.93 18.3054 11.2099 18.0255 11.2099 17.6804V16.6137C11.9209 16.497 12.5647 16.1868 13.0965 15.6984C13.7132 15.1319 14.1294 14.3642 14.2684 13.537C14.5507 11.8569 13.6702 10.3959 12.0253 9.81505C11.7307 9.71092 11.4597 9.6113 11.2099 9.51517V5.4328C11.9754 5.55605 12.4354 5.95248 12.4689 5.9823C12.7229 6.2133 13.1158 6.19642 13.3489 5.9438C13.5829 5.69011 13.567 5.29467 13.3134 5.06061C13.2685 5.01917 12.487 4.31492 11.2099 4.17098V3.25586C11.2099 2.91073 10.93 2.63086 10.5849 2.63086C10.2398 2.63086 9.95992 2.91073 9.95992 3.25586V4.22161C9.80323 4.25117 9.64267 4.28898 9.47748 4.33867C8.40067 4.66305 7.59598 5.5863 7.37735 6.74798C7.17917 7.80117 7.51335 8.81367 8.24973 9.39067C8.67579 9.72398 9.21129 10.029 9.95985 10.3553V15.4105C9.21123 15.3812 8.75673 15.2432 7.95954 14.7215C7.67054 14.5324 7.28329 14.6134 7.09429 14.9022C6.90529 15.1909 6.98617 15.5783 7.27498 15.7673ZM11.2099 10.8502C11.3384 10.8972 11.471 10.945 11.6089 10.9937C13.2025 11.5564 13.1039 12.9241 13.0357 13.3299C12.894 14.1734 12.2724 15.0744 11.2099 15.3393V10.8502ZM9.02029 8.40648C8.65304 8.11873 8.49423 7.57186 8.60573 6.97911C8.7091 6.42955 9.08717 5.76173 9.83773 5.53561C9.87885 5.52323 9.91942 5.5123 9.95979 5.50173V8.97736C9.56885 8.78336 9.26373 8.59692 9.02029 8.40648Z" fill="white"/>
    <path d="M29.1273 0C28.9821 0 28.5711 0 28.5015 0H6.90394C5.37162 0 4.125 1.246 4.125 2.7775V25.7114H0.71875C0.373625 25.7114 0.09375 25.9913 0.09375 26.3364V29.2206C0.09375 30.7533 1.34038 32 2.87269 32H8.88231C9.22744 32 9.50731 31.7201 9.50731 31.375C9.50731 31.0299 9.22744 30.75 8.88231 30.75H2.87269C2.02963 30.75 1.34375 30.0639 1.34375 29.2207V26.9615H22.0388V29.2207C22.0388 29.7854 22.2085 30.3109 22.4989 30.75H14.5002C14.1551 30.75 13.8752 31.0299 13.8752 31.375C13.8752 31.7201 14.1551 32 14.5002 32H24.8178C26.351 32 27.5984 30.7533 27.5984 29.2207V8.78825H31.2812C31.6264 8.78825 31.9062 8.50838 31.9062 8.16325V2.7775C31.9062 1.246 30.6596 0 29.1273 0V0ZM26.3484 2.7775V29.2207C26.3484 30.0639 25.6618 30.75 24.8178 30.75C23.9747 30.75 23.2888 30.0639 23.2888 29.2207V26.3365C23.2888 25.9914 23.0089 25.7115 22.6638 25.7115H5.375V2.7775C5.375 1.93525 6.06087 1.25 6.90394 1.25H26.8081C26.5179 1.68856 26.3484 2.21356 26.3484 2.7775ZM30.6562 7.53825H27.5984V2.7775C27.5984 1.93519 28.2843 1.25 29.1273 1.25C29.9704 1.25 30.6562 1.93525 30.6562 2.7775V7.53825Z" fill="white"/>
    <path d="M16.7319 18.3053H23.4064C23.9973 18.3053 24.478 17.8254 24.478 17.2357V12.3567C24.478 11.7658 23.9973 11.2852 23.4064 11.2852H16.7319C16.1409 11.2852 15.6602 11.7658 15.6602 12.3567V17.2357C15.6601 17.8254 16.1409 18.3053 16.7319 18.3053ZM16.9101 12.5351H23.228V17.0552H16.9101V12.5351Z" fill="white"/>
    <path d="M20.0293 3.88086H23.8532C24.1983 3.88086 24.4782 3.60098 24.4782 3.25586C24.4782 2.91073 24.1983 2.63086 23.8532 2.63086H20.0293C19.6842 2.63086 19.4043 2.91073 19.4043 3.25586C19.4043 3.60098 19.6841 3.88086 20.0293 3.88086Z" fill="white"/>
    <path d="M16.2852 3.88086H17.5279C17.873 3.88086 18.1529 3.60098 18.1529 3.25586C18.1529 2.91073 17.873 2.63086 17.5279 2.63086H16.2852C15.94 2.63086 15.6602 2.91073 15.6602 3.25586C15.6602 3.60098 15.94 3.88086 16.2852 3.88086Z" fill="white"/>
    <path d="M16.2852 9.65137H17.5279C17.873 9.65137 18.1529 9.37149 18.1529 9.02637C18.1529 8.68124 17.873 8.40137 17.5279 8.40137H16.2852C15.94 8.40137 15.6602 8.68124 15.6602 9.02637C15.6602 9.37149 15.94 9.65137 16.2852 9.65137Z" fill="white"/>
    <path d="M16.2852 6.76465H17.5279C17.873 6.76465 18.1529 6.48477 18.1529 6.13965C18.1529 5.79452 17.873 5.51465 17.5279 5.51465H16.2852C15.94 5.51465 15.6602 5.79452 15.6602 6.13965C15.6602 6.48477 15.94 6.76465 16.2852 6.76465Z" fill="white"/>
    <path d="M20.0293 9.65137H23.8532C24.1983 9.65137 24.4782 9.37149 24.4782 9.02637C24.4782 8.68124 24.1983 8.40137 23.8532 8.40137H20.0293C19.6842 8.40137 19.4043 8.68124 19.4043 9.02637C19.4043 9.37149 19.6841 9.65137 20.0293 9.65137Z" fill="white"/>
    <path d="M20.0293 6.76465H23.8532C24.1983 6.76465 24.4782 6.48477 24.4782 6.13965C24.4782 5.79452 24.1983 5.51465 23.8532 5.51465H20.0293C19.6842 5.51465 19.4043 5.79452 19.4043 6.13965C19.4043 6.48477 19.6841 6.76465 20.0293 6.76465Z" fill="white"/>
    <path d="M23.8533 22.8252H20.5684C20.2232 22.8252 19.9434 23.1051 19.9434 23.4502C19.9434 23.7953 20.2232 24.0752 20.5684 24.0752H23.8533C24.1984 24.0752 24.4783 23.7953 24.4783 23.4502C24.4783 23.1051 24.1985 22.8252 23.8533 22.8252Z" fill="white"/>
    <path d="M23.8537 19.9414H14.0273C13.6822 19.9414 13.4023 20.2213 13.4023 20.5664C13.4023 20.9115 13.6822 21.1914 14.0273 21.1914H23.8538C24.1989 21.1914 24.4788 20.9115 24.4788 20.5664C24.4788 20.2213 24.1989 19.9414 23.8537 19.9414Z" fill="white"/>
    <path d="M16.8179 22.8252H7.61719C7.27206 22.8252 6.99219 23.1051 6.99219 23.4502C6.99219 23.7953 7.27206 24.0752 7.61719 24.0752H16.8179C17.163 24.0752 17.4429 23.7953 17.4429 23.4502C17.4429 23.1051 17.1631 22.8252 16.8179 22.8252Z" fill="white"/>
    <path d="M7.61719 21.1914H10.2746C10.6197 21.1914 10.8996 20.9115 10.8996 20.5664C10.8996 20.2213 10.6197 19.9414 10.2746 19.9414H7.61719C7.27206 19.9414 6.99219 20.2213 6.99219 20.5664C6.99219 20.9115 7.27206 21.1914 7.61719 21.1914Z" fill="white"/>
    <path d="M11.6914 30.75C11.3463 30.75 11.0664 31.0299 11.0664 31.375C11.0664 31.7201 11.3463 32 11.6914 32H11.695C12.0401 32 12.3182 31.7201 12.3182 31.375C12.3182 31.0299 12.0365 30.75 11.6914 30.75Z" fill="white"/>
</svg>
