<svg width="40" height="43" viewBox="0 0 40 43" fill="none"
    xmlns="http://www.w3.org/2000/svg">
    <path d="M19 43C13.9249 43 9.15362 41.0236 5.56492 37.4351C1.97637 33.8464 0 29.0751 0 24C0 18.9249 1.97637 14.1536 5.56492 10.5649C9.15362 6.97637 13.9249 5 19 5C24.0751 5 28.8464 6.97637 32.4351 10.5649C36.0236 14.1536 38 18.9249 38 24C38 29.0751 36.0236 33.8464 32.4351 37.4351C28.8464 41.0236 24.0751 43 19 43ZM19 7.22656C14.5196 7.22656 10.3075 8.9713 7.1394 12.1394C3.9713 15.3075 2.22656 19.5196 2.22656 24C2.22656 28.4804 3.9713 32.6925 7.1394 35.8606C10.3075 39.0287 14.5196 40.7734 19 40.7734C23.4804 40.7734 27.6925 39.0287 30.8606 35.8606C34.0287 32.6925 35.7734 28.4804 35.7734 24C35.7734 19.5196 34.0287 15.3075 30.8606 12.1394C27.6925 8.9713 23.4804 7.22656 19 7.22656Z" fill="white"/>
    <path d="M17.8867 9.45605H20.1133V12.4272H17.8867V9.45605Z" fill="white"/>
    <path d="M26.3926 15.0312L28.4932 12.9307L30.0673 14.5048L27.9668 16.6054L26.3926 15.0312Z" fill="white"/>
    <path d="M30.5723 22.8867H33.5434V25.1133H30.5723V22.8867Z" fill="white"/>
    <path d="M26.3906 32.9707L27.9648 31.3965L30.0654 33.4971L28.4912 35.0713L26.3906 32.9707Z" fill="white"/>
    <path d="M17.8867 35.5732H20.1133V38.5444H17.8867V35.5732Z" fill="white"/>
    <path d="M7.92383 33.4951L10.0244 31.3945L11.5986 32.9687L9.49801 35.0693L7.92383 33.4951Z" fill="white"/>
    <path d="M4.45508 22.8867H7.4262V25.1133H4.45508V22.8867Z" fill="white"/>
    <path d="M7.92578 14.5029L9.49996 12.9288L11.6006 15.0293L10.0264 16.6035L7.92578 14.5029Z" fill="white"/>
    <path d="M33.8125 8.25L19.375 24.75L13.1875 18.5625" stroke="white" stroke-width="3" stroke-miterlimit="10" stroke-linecap="square"/>
</svg>
