<svg width="34" height="32" viewBox="0 0 34 32" fill="none"
    xmlns="http://www.w3.org/2000/svg">
    <path d="M33.5009 9.46969L29.2509 5.46969C29.1395 5.36481 28.9975 5.29338 28.8429 5.26444C28.6883 5.23551 28.5281 5.25036 28.3825 5.30712C28.2369 5.36389 28.1125 5.46001 28.0249 5.58334C27.9373 5.70667 27.8906 5.85167 27.8906 6V7.25H26.2968V3C26.296 2.2709 25.9879 1.5719 25.4401 1.05635C24.8923 0.540802 24.1496 0.250811 23.375 0.25H10.625C9.8503 0.250811 9.10761 0.540802 8.55984 1.05635C8.01206 1.5719 7.70395 2.2709 7.70309 3V19.25H6.10934V18C6.10933 17.8517 6.06259 17.7067 5.97503 17.5833C5.88747 17.46 5.76301 17.3639 5.61741 17.3071C5.4718 17.2504 5.31158 17.2355 5.15701 17.2644C5.00244 17.2934 4.86045 17.3648 4.74901 17.4697L0.499006 21.4697C0.349574 21.6103 0.265625 21.8011 0.265625 22C0.265625 22.1989 0.349574 22.3897 0.499006 22.5303L4.74901 26.5303C5.22222 27.0046 6.13158 26.6475 6.10934 26V24.75H7.70309V29C7.70395 29.7291 8.01206 30.4281 8.55984 30.9436C9.10761 31.4592 9.8503 31.7492 10.625 31.75H23.375C24.1496 31.7492 24.8923 31.4592 25.4401 30.9436C25.9879 30.4281 26.296 29.7291 26.2968 29V12.75H27.8906V14C27.8684 14.6477 28.7777 15.0044 29.2509 14.5303L33.5009 10.5303C33.6504 10.3897 33.7343 10.1989 33.7343 10C33.7343 9.8011 33.6504 9.61034 33.5009 9.46969ZM10.625 1.75H23.375C23.7271 1.75038 24.0647 1.8822 24.3136 2.11654C24.5626 2.35087 24.7027 2.6686 24.7031 3V4.25H9.29684V3C9.29724 2.6686 9.4373 2.35087 9.68628 2.11654C9.93527 1.8822 10.2728 1.75038 10.625 1.75ZM23.375 30.25H10.625C10.2728 30.2496 9.93527 30.1178 9.68628 29.8835C9.4373 29.6491 9.29724 29.3314 9.29684 29V27.75H24.7031V29C24.7027 29.3314 24.5626 29.6491 24.3136 29.8835C24.0647 30.1178 23.7271 30.2496 23.375 30.25ZM29.4843 12.1893V12C29.4843 11.8011 29.4004 11.6103 29.2509 11.4697C29.1015 11.329 28.8988 11.25 28.6875 11.25H22.3125C22.1011 11.25 21.8984 11.329 21.749 11.4697C21.5995 11.6103 21.5156 11.8011 21.5156 12C21.5156 12.1989 21.5995 12.3897 21.749 12.5303C21.8984 12.671 22.1011 12.75 22.3125 12.75H24.7031V26.25H9.29684V24.75H11.6875C11.8988 24.75 12.1015 24.671 12.2509 24.5303C12.4004 24.3897 12.4843 24.1989 12.4843 24C12.4843 23.8011 12.4004 23.6103 12.2509 23.4697C12.1015 23.329 11.8988 23.25 11.6875 23.25H5.31246C5.10112 23.25 4.89843 23.329 4.74899 23.4697C4.59954 23.6103 4.51559 23.8011 4.51559 24V24.1893L2.18944 22L4.51559 19.8107V20C4.51559 20.1989 4.59954 20.3897 4.74899 20.5303C4.89843 20.671 5.10112 20.75 5.31246 20.75H11.6875C11.8988 20.75 12.1015 20.671 12.2509 20.5303C12.4004 20.3897 12.4843 20.1989 12.4843 20C12.4843 19.8011 12.4004 19.6103 12.2509 19.4697C12.1015 19.329 11.8988 19.25 11.6875 19.25H9.29684V5.75H24.7031V7.25H22.3125C22.1011 7.25 21.8984 7.32902 21.749 7.46967C21.5995 7.61032 21.5156 7.80109 21.5156 8C21.5156 8.19891 21.5995 8.38968 21.749 8.53033C21.8984 8.67098 22.1011 8.75 22.3125 8.75H28.6875C28.8988 8.75 29.1015 8.67098 29.2509 8.53033C29.4004 8.38968 29.4843 8.19891 29.4843 8V7.81069L31.8105 10L29.4843 12.1893Z" fill="white"/>
    <path d="M15.9375 12.75H18.5937C18.805 12.7502 19.0076 12.8293 19.157 12.9699C19.3064 13.1105 19.3904 13.3012 19.3906 13.5C19.3906 13.6989 19.4746 13.8897 19.624 14.0303C19.7735 14.171 19.9762 14.25 20.1875 14.25C20.3988 14.25 20.6015 14.171 20.751 14.0303C20.9004 13.8897 20.9844 13.6989 20.9844 13.5C20.9837 12.9035 20.7316 12.3316 20.2834 11.9097C19.8352 11.4879 19.2276 11.2507 18.5937 11.25H17.7969V10C17.7969 9.80109 17.7129 9.61032 17.5635 9.46967C17.414 9.32902 17.2113 9.25 17 9.25C16.7887 9.25 16.586 9.32902 16.4365 9.46967C16.2871 9.61032 16.2031 9.80109 16.2031 10V11.25H15.9375C15.1626 11.25 14.4194 11.5397 13.8714 12.0555C13.3235 12.5712 13.0156 13.2707 13.0156 14C13.0156 14.7293 13.3235 15.4288 13.8714 15.9445C14.4194 16.4603 15.1626 16.75 15.9375 16.75H18.0625C18.4147 16.75 18.7526 16.8817 19.0016 17.1161C19.2507 17.3505 19.3906 17.6685 19.3906 18C19.3906 18.3315 19.2507 18.6495 19.0016 18.8839C18.7526 19.1183 18.4147 19.25 18.0625 19.25H15.4062C15.195 19.2498 14.9924 19.1707 14.843 19.0301C14.6936 18.8895 14.6096 18.6988 14.6094 18.5C14.6094 18.3011 14.5254 18.1103 14.376 17.9697C14.2265 17.829 14.0238 17.75 13.8125 17.75C13.6012 17.75 13.3985 17.829 13.249 17.9697C13.0996 18.1103 13.0156 18.3011 13.0156 18.5C13.0163 19.0965 13.2684 19.6684 13.7166 20.0903C14.1648 20.5121 14.7724 20.7493 15.4062 20.75H16.2031V22C16.2031 22.1989 16.2871 22.3897 16.4365 22.5303C16.586 22.671 16.7887 22.75 17 22.75C17.2113 22.75 17.414 22.671 17.5635 22.5303C17.7129 22.3897 17.7969 22.1989 17.7969 22V20.75H18.0625C18.8374 20.75 19.5806 20.4603 20.1286 19.9445C20.6765 19.4288 20.9844 18.7293 20.9844 18C20.9844 17.2707 20.6765 16.5712 20.1286 16.0555C19.5806 15.5397 18.8374 15.25 18.0625 15.25H15.9375C15.5853 15.25 15.2474 15.1183 14.9984 14.8839C14.7493 14.6495 14.6094 14.3315 14.6094 14C14.6094 13.6685 14.7493 13.3505 14.9984 13.1161C15.2474 12.8817 15.5853 12.75 15.9375 12.75Z" fill="white"/>
</svg>
