<svg width="30" height="30" viewBox="0 0 30 30" fill="none"
    xmlns="http://www.w3.org/2000/svg">
    <path d="M28.4766 14.9996C28.7109 14.9996 28.875 14.8121 28.8984 14.6012V9.4918C28.8984 9.25742 28.7109 9.09336 28.4766 9.06992H27.3516L26.8594 5.71836C26.8359 5.48398 26.625 5.34336 26.3906 5.3668L20.0391 6.3043H20.0156L1.45312 9.09336C1.45312 9.09336 1.10156 9.16367 1.10156 9.4918V14.5777C1.10156 14.8121 1.28906 14.9762 1.5 14.9996C2.53125 14.9996 3.35156 15.8199 3.35156 16.8512C3.35156 17.8824 2.53125 18.7027 1.5 18.7027C1.26563 18.7027 1.10156 18.8902 1.07812 19.1012V24.1871C1.07812 24.4215 1.26563 24.5855 1.5 24.609H28.4531C28.6875 24.609 28.8516 24.4215 28.875 24.1871V19.1246C28.875 18.8902 28.6875 18.7262 28.4766 18.7027C27.4453 18.7027 26.625 17.8824 26.625 16.8512C26.625 15.8199 27.4453 14.9996 28.4766 14.9996ZM19.7344 7.19492L19.8984 8.29648C19.9219 8.50742 20.1094 8.64805 20.2969 8.64805H20.3672C20.6016 8.62461 20.7422 8.41367 20.7188 8.1793L20.5547 7.07773L26.1094 6.25742L26.5312 9.09336H7.05469L19.7344 7.19492ZM28.0781 19.4996V23.8121H22.0078V22.6871C22.0078 22.4527 21.8203 22.2652 21.5859 22.2652C21.3516 22.2652 21.1641 22.4527 21.1641 22.6871V23.8121H1.94531V19.4996C3.39844 19.2652 4.40625 17.9059 4.17187 16.4527C3.98437 15.3043 3.09375 14.3902 1.94531 14.2262V9.91367H21.1875V11.0152C21.1875 11.2496 21.375 11.4371 21.6094 11.4371C21.8437 11.4371 22.0312 11.2496 22.0312 11.0152V9.89023H28.1016V14.2027C26.6484 14.4371 25.6406 15.7965 25.875 17.2496C26.0156 18.4215 26.9062 19.3121 28.0781 19.4996Z" fill="white"/>
    <path d="M21.5859 17.4844C21.3516 17.4844 21.1875 17.6719 21.1641 17.8828V20.6016C21.1641 20.8359 21.3516 21.0234 21.5859 21.0234C21.8203 21.0234 22.0078 20.8359 22.0078 20.6016V17.9063C22.0078 17.6719 21.8203 17.4844 21.5859 17.4844Z" fill="white"/>
    <path d="M21.5859 12.7031C21.3516 12.7031 21.1875 12.8906 21.1641 13.1016V15.8203C21.1641 16.0547 21.3516 16.2422 21.5859 16.2422C21.8203 16.2422 22.0078 16.0547 22.0078 15.8203V13.1016C22.0078 12.8906 21.8203 12.7031 21.5859 12.7031Z" fill="white"/>
    <path d="M6.39844 13.3594H11.4844C11.7188 13.3594 11.9062 13.1719 11.9062 12.9375C11.9062 12.7031 11.7188 12.5391 11.4844 12.5391H6.39844C6.16406 12.5391 5.97656 12.7266 5.97656 12.9609C5.97656 13.1953 6.16406 13.3594 6.39844 13.3594Z" fill="white"/>
    <path d="M16.5703 15.1406H6.39844C6.16406 15.1406 5.97656 15.3281 5.97656 15.5625C5.97656 15.7969 6.16406 15.9844 6.39844 15.9844H16.5703C16.8047 15.9844 16.9922 15.7969 16.9922 15.5625C16.9922 15.3281 16.8047 15.1406 16.5703 15.1406Z" fill="white"/>
    <path d="M16.5703 17.7422H6.39844C6.16406 17.7422 5.97656 17.9297 5.97656 18.1641C5.97656 18.3984 6.16406 18.586 6.39844 18.586H16.5703C16.8047 18.586 16.9922 18.3984 16.9922 18.1641C16.9922 17.9297 16.8047 17.7422 16.5703 17.7422Z" fill="white"/>
    <path d="M16.5703 20.3438H6.39844C6.16406 20.3438 5.97656 20.5312 5.97656 20.7656C5.97656 21 6.16406 21.1875 6.39844 21.1875H16.5703C16.8047 21.1875 16.9922 21 16.9922 20.7656C16.9922 20.5312 16.8047 20.3438 16.5703 20.3438Z" fill="white"/>
</svg>
