<svg width="30" height="30" viewBox="0 0 30 30" fill="none"
    xmlns="http://www.w3.org/2000/svg">
    <g clip-path="url(#clip0_54_48420)">
        <path d="M29.7732 12.1923L24.9609 8.46176V4.45221C24.9609 4.12857 24.6986 3.86627 24.375 3.86627H19.6156L15.387 0.145107C15.1657 -0.0496712 14.8343 -0.0496712 14.613 0.145107L10.3844 3.86627H5.625C5.30136 3.86627 5.03906 4.12857 5.03906 4.45221V8.46176L0.226822 12.1923C0.087204 12.3008 0 12.4725 0 12.6553V18.6319C0 18.9555 0.262299 19.2178 0.585938 19.2178C0.909576 19.2178 1.17188 18.9555 1.17188 18.6319V13.81L10.1145 20.3535L1.17188 28.1273V23.3194C1.17188 22.9958 0.909576 22.7335 0.585938 22.7335C0.262299 22.7335 0 22.9958 0 23.3194V29.4131C0 29.7361 0.26413 29.9991 0.585938 29.9991H29.4141C29.7327 29.9991 30 29.7395 30 29.4131V12.6553C30 12.4697 29.9103 12.299 29.7732 12.1923ZM19.8855 20.3535L28.8281 13.81V28.1273L19.8855 20.3535ZM28.4404 12.6418L24.9609 15.1877V9.94445L28.4404 12.6418ZM15 1.36551L17.8418 3.86627H12.1582L15 1.36551ZM23.7891 5.03814V16.0451C23.7511 16.0728 15.3728 22.2034 15 22.4762C14.886 22.3926 6.30455 16.1135 6.21094 16.0451V5.03814H23.7891ZM5.03906 9.94445V15.1877L1.5596 12.6418L5.03906 9.94445ZM14.6539 23.6751C14.7569 23.7504 14.8785 23.7881 15 23.7881C15.1215 23.7881 15.2431 23.7504 15.3461 23.6751L18.9155 21.0631L27.8469 28.8272H2.15309L11.0845 21.0633L14.6539 23.6751Z" fill="white"/>
        <path d="M9.14062 9.72656H16.1719C16.4955 9.72656 16.7578 9.46426 16.7578 9.14062C16.7578 8.81699 16.4955 8.55469 16.1719 8.55469H9.14062C8.81699 8.55469 8.55469 8.81699 8.55469 9.14062C8.55469 9.46426 8.81699 9.72656 9.14062 9.72656Z" fill="white"/>
        <path d="M9.14062 13.2422H20.8594C21.183 13.2422 21.4453 12.9799 21.4453 12.6562C21.4453 12.3326 21.183 12.0703 20.8594 12.0703H9.14062C8.81699 12.0703 8.55469 12.3326 8.55469 12.6562C8.55469 12.9799 8.81699 13.2422 9.14062 13.2422Z" fill="white"/>
        <path d="M18.5156 15.5859H11.4844C11.1607 15.5859 10.8984 15.8482 10.8984 16.1719C10.8984 16.4955 11.1607 16.7578 11.4844 16.7578H18.5156C18.8393 16.7578 19.1016 16.4955 19.1016 16.1719C19.1016 15.8482 18.8393 15.5859 18.5156 15.5859Z" fill="white"/>
        <path d="M18.5156 9.72656H20.8594C21.183 9.72656 21.4453 9.46426 21.4453 9.14062C21.4453 8.81699 21.183 8.55469 20.8594 8.55469H18.5156C18.192 8.55469 17.9297 8.81699 17.9297 9.14062C17.9297 9.46426 18.192 9.72656 18.5156 9.72656Z" fill="white"/>
        <path d="M0.585938 21.5625C0.909348 21.5625 1.17188 21.3 1.17188 20.9766C1.17188 20.6532 0.909348 20.3906 0.585938 20.3906C0.262527 20.3906 0 20.6532 0 20.9766C0 21.3 0.262527 21.5625 0.585938 21.5625Z" fill="white"/>
    </g>
    <defs>
        <clipPath id="clip0_54_48420">
            <rect width="30" height="30" fill="white"/>
        </clipPath>
    </defs>
</svg>
