<svg width="31" height="31" viewBox="0 0 31 31" fill="none"
    xmlns="http://www.w3.org/2000/svg">
    <g clip-path="url(#clip0_54_48427)">
        <path d="M20.4701 31.0001C19.9741 31.0001 19.4768 30.8954 19.0183 30.6862L16.4194 29.5043C15.8382 29.2408 15.1691 29.2395 14.5865 29.5043L11.9877 30.6849C11.1042 31.0853 10.0877 31.1021 9.19384 30.7327C8.3 30.362 7.59217 29.6296 7.25117 28.7242L6.24883 26.0504C6.02409 25.4511 5.55133 24.9783 4.95329 24.7549L2.27954 23.7525C1.37279 23.4115 0.64171 22.7037 0.271001 21.8099C-0.0997069 20.916 -0.0816235 19.8982 0.318793 19.016L1.50067 16.4172C1.76417 15.8346 1.76417 15.1668 1.50067 14.5843L0.317501 11.9854C-0.0829152 11.1045 -0.100999 10.0854 0.26971 9.19157C0.640418 8.29773 1.37279 7.5899 2.27825 7.2489L4.952 6.24657C5.55133 6.02182 6.02409 5.54907 6.24754 4.95103L7.24988 2.27727C7.59088 1.37052 8.29871 0.639442 9.19254 0.268733C10.0877 -0.101975 11.1042 -0.0838918 11.9864 0.316525L14.5853 1.4984C15.1665 1.7619 15.8356 1.76319 16.4181 1.4984L19.017 0.317817C19.8979 -0.0838917 20.917 -0.100683 21.8108 0.270025C22.7047 0.640733 23.4125 1.37311 23.7535 2.27857L24.7558 4.95232C24.9806 5.55165 25.4533 6.0244 26.0514 6.24786L28.7251 7.25019C29.6319 7.59119 30.363 8.29903 30.7337 9.19286C31.1044 10.0867 31.0863 11.1045 30.6859 11.9867L29.504 14.5856C29.2405 15.1681 29.2405 15.8359 29.504 16.4184L30.6846 19.0173C31.085 19.8982 31.1031 20.9173 30.7324 21.8112C30.3617 22.705 29.6293 23.4128 28.7238 23.7538L26.0501 24.7562C25.4508 24.9809 24.978 25.4536 24.7545 26.0517L23.7522 28.7254C23.4112 29.6322 22.7034 30.3633 21.8095 30.734C21.3833 30.9109 20.926 31.0001 20.4701 31.0001ZM15.5023 28.015C15.997 28.015 16.4918 28.1197 16.9529 28.3289L19.553 29.5108C20.1187 29.7691 20.7452 29.7794 21.3174 29.5405C21.8909 29.3028 22.3262 28.852 22.5445 28.2721L23.5468 25.5983C23.902 24.6502 24.6499 23.9024 25.598 23.5472L28.2717 22.5448C28.853 22.3278 29.3038 21.8912 29.5402 21.3177C29.7778 20.7442 29.7675 20.1178 29.5105 19.5533L28.3286 16.9545C27.9101 16.0322 27.9101 14.9744 28.3286 14.0521L29.5105 11.452C29.7675 10.8875 29.7778 10.2611 29.5402 9.68757C29.3025 9.11407 28.8517 8.67878 28.2717 8.46048L25.598 7.45815C24.6499 7.10294 23.902 6.35507 23.5468 5.40698L22.5445 2.73323C22.3275 2.15198 21.8909 1.70119 21.3174 1.46482C20.7439 1.22586 20.1187 1.23748 19.553 1.49452L16.9542 2.6764C16.0319 3.09361 14.9753 3.09361 14.0531 2.6764L11.4517 1.49194C10.8859 1.2349 10.2608 1.22457 9.68725 1.46223C9.11375 1.6999 8.67846 2.15069 8.46017 2.73065L7.45783 5.4044C7.10263 6.35248 6.35346 7.10165 5.40667 7.45686L2.73292 8.45919C2.15167 8.67619 1.70088 9.11278 1.4645 9.68628C1.22554 10.2598 1.23717 10.8862 1.49292 11.4507L2.67479 14.0495C3.09329 14.9718 3.09329 16.0297 2.67479 16.9519L1.49292 19.552C1.23588 20.1165 1.22554 20.7429 1.46321 21.3164C1.70088 21.8899 2.15167 22.3252 2.73163 22.5435L5.40538 23.5459C6.35346 23.9011 7.10133 24.6489 7.45654 25.597L8.45888 28.2708C8.67588 28.852 9.11246 29.3028 9.68596 29.5392C10.2595 29.7769 10.8846 29.7665 11.4504 29.5095L14.0492 28.3276C14.5129 28.1197 15.0076 28.015 15.5023 28.015ZM16.6868 2.08611H16.6997H16.6868Z" fill="white"/>
        <path d="M10.9792 12.9163C9.19925 12.9163 7.75 11.4671 7.75 9.68717C7.75 7.90726 9.19925 6.45801 10.9792 6.45801C12.7591 6.45801 14.2083 7.90726 14.2083 9.68717C14.2083 11.4671 12.7591 12.9163 10.9792 12.9163ZM10.9792 7.74967C9.91096 7.74967 9.04167 8.61897 9.04167 9.68717C9.04167 10.7554 9.91096 11.6247 10.9792 11.6247C12.0474 11.6247 12.9167 10.7554 12.9167 9.68717C12.9167 8.61897 12.0474 7.74967 10.9792 7.74967Z" fill="white"/>
        <path d="M20.0202 24.5413C18.2403 24.5413 16.791 23.0921 16.791 21.3122C16.791 19.5323 18.2403 18.083 20.0202 18.083C21.8001 18.083 23.2493 19.5323 23.2493 21.3122C23.2493 23.0921 21.8001 24.5413 20.0202 24.5413ZM20.0202 19.3747C18.952 19.3747 18.0827 20.244 18.0827 21.3122C18.0827 22.3804 18.952 23.2497 20.0202 23.2497C21.0884 23.2497 21.9577 22.3804 21.9577 21.3122C21.9577 20.244 21.0884 19.3747 20.0202 19.3747Z" fill="white"/>
        <path d="M10.9794 23.2497C10.8606 23.2497 10.7405 23.2174 10.6332 23.1489C10.3323 22.9578 10.2432 22.5573 10.4356 22.2577L19.4773 8.04935C19.6697 7.74968 20.0676 7.66055 20.3685 7.85172C20.6695 8.04289 20.7586 8.4433 20.5662 8.74297L11.5245 22.9513C11.4018 23.1438 11.1925 23.2497 10.9794 23.2497Z" fill="white"/>
    </g>
    <defs>
        <clipPath id="clip0_54_48427">
            <rect width="31" height="31" fill="white"/>
        </clipPath>
    </defs>
</svg>
